<svg width="1200" height="215" viewBox="0 0 1200 215" fill="none" xmlns="http://www.w3.org/2000/svg">
<path d="M261.073 16.585H204.175L135.571 132.253L66.9657 16.585H10.0681V180.487H52.2145V68.0972L120.351 180.487H150.79L218.927 68.0972V180.487H261.073V16.585Z" fill="white"/>
<path d="M473.171 200C599.102 200 653.658 166.788 653.658 107.059C653.658 47.5877 599.102 14.6338 473.171 14.6338C346.829 14.6338 292.683 47.3303 292.683 107.059C292.683 167.046 346.829 200 473.171 200ZM473.171 165.853C396.463 165.853 351.219 144.132 351.219 107.059C351.219 70.2436 396.053 48.7801 473.171 48.7801C550.288 48.7801 595.122 70.501 595.122 107.059C595.122 143.875 549.878 165.853 473.171 165.853Z" fill="#D22F26"/>
<path d="M859.785 16.585L793.99 149.346L728.195 16.585H680.897L765.19 180.487H822.79L907.083 16.585H859.785Z" fill="white"/>
<path d="M978.815 16.585H936.669V180.487H978.815V16.585Z" fill="white"/>
<path d="M1190.27 50.0679V16.585H1017V180.487H1190.27V147.005H1059.15V113.756H1190.27V83.3167H1059.15V50.0679H1190.27Z" fill="white"/>
</svg>
